<svg xmlns="http://www.w3.org/2000/svg" viewBox="0 0 420 300" role="img" aria-labelledby="title desc">
  <title id="title">Oficina con sellos</title>
  <desc id="desc">Ilustracion de escritorio de oficina con documentos, sello y tinta.</desc>
  <rect width="420" height="300" rx="24" fill="#ffffff"/>
  <rect x="30" y="32" width="360" height="236" rx="20" fill="#f6f6f7"/>
  <g transform="translate(72 58)">
    <rect x="72" y="0" width="170" height="190" rx="16" fill="#ffffff" stroke="#e2e2e7" stroke-width="4"/>
    <path d="M103 50h108M103 82h82M103 114h103" stroke="#cfd0d6" stroke-width="10" stroke-linecap="round"/>
    <rect x="120" y="148" width="78" height="18" rx="9" fill="#f26a21"/>
    <g transform="translate(0 88) rotate(-8)">
      <rect x="32" y="0" width="62" height="38" rx="10" fill="#ffffff" stroke="#0d0d0f" stroke-width="6"/>
      <rect x="15" y="36" width="96" height="52" rx="13" fill="#ffffff" stroke="#0d0d0f" stroke-width="6"/>
      <rect x="0" y="83" width="126" height="34" rx="12" fill="#0d0d0f"/>
      <path d="M42 62h43" stroke="#f26a21" stroke-width="10" stroke-linecap="round"/>
    </g>
    <g transform="translate(234 116)">
      <rect x="0" y="0" width="58" height="78" rx="14" fill="#ffffff" stroke="#0d0d0f" stroke-width="6"/>
      <rect x="12" y="18" width="34" height="34" rx="9" fill="#f26a21"/>
    </g>
  </g>
</svg>
