<svg xmlns="http://www.w3.org/2000/svg" viewBox="0 0 460 320" role="img" aria-labelledby="title desc">
  <title id="title">Papeleria personalizada</title>
  <desc id="desc">Ilustracion de documentos impresos, tarjetas y tinta para servicios de papeleria.</desc>
  <defs>
    <linearGradient id="paperBg" x1="52" y1="28" x2="404" y2="294" gradientUnits="userSpaceOnUse">
      <stop stop-color="#ffffff"/>
      <stop offset="1" stop-color="#fff0e8"/>
    </linearGradient>
    <filter id="shadow" x="0" y="0" width="460" height="320" filterUnits="userSpaceOnUse">
      <feDropShadow dx="0" dy="16" stdDeviation="14" flood-color="#0d0d0f" flood-opacity=".13"/>
    </filter>
  </defs>
  <rect x="24" y="24" width="412" height="272" rx="24" fill="url(#paperBg)"/>
  <circle cx="391" cy="76" r="38" fill="#f26a21" opacity=".16"/>
  <circle cx="79" cy="254" r="54" fill="#0d0d0f" opacity=".06"/>
  <g filter="url(#shadow)">
    <rect x="126" y="50" width="174" height="222" rx="16" fill="#ffffff" stroke="#e5e5ea" stroke-width="4"/>
    <path d="M156 94h112M156 124h92M156 154h114" stroke="#cfd0d6" stroke-width="10" stroke-linecap="round"/>
    <rect x="156" y="192" width="76" height="20" rx="10" fill="#f26a21"/>
    <rect x="156" y="228" width="110" height="12" rx="6" fill="#0d0d0f"/>
  </g>
  <g transform="translate(270 120) rotate(8)" filter="url(#shadow)">
    <rect x="0" y="0" width="128" height="80" rx="14" fill="#ffffff" stroke="#0d0d0f" stroke-width="6"/>
    <rect x="18" y="20" width="72" height="10" rx="5" fill="#f26a21"/>
    <rect x="18" y="44" width="92" height="9" rx="4.5" fill="#cfd0d6"/>
  </g>
  <g transform="translate(56 132) rotate(-7)" filter="url(#shadow)">
    <rect x="0" y="0" width="142" height="86" rx="14" fill="#ffffff" stroke="#0d0d0f" stroke-width="6"/>
    <path d="M22 31h86M22 55h58" stroke="#f26a21" stroke-width="10" stroke-linecap="round"/>
  </g>
</svg>
